<?xml version="1.0" encoding="UTF-8" standalone="no"?>
<!-- Created with Inkscape (http://www.inkscape.org/) -->

<svg
   width="43.929581mm"
   height="50.831631mm"
   viewBox="0 0 43.929581 50.831631"
   version="1.1"
   id="svg5"
   inkscape:version="1.4.2 (ebf0e940d0, 2025-05-08)"
   sodipodi:docname="logo.svg"
   xmlns:inkscape="http://www.inkscape.org/namespaces/inkscape"
   xmlns:sodipodi="http://sodipodi.sourceforge.net/DTD/sodipodi-0.dtd"
   xmlns="http://www.w3.org/2000/svg"
   xmlns:svg="http://www.w3.org/2000/svg">
  <sodipodi:namedview
     id="namedview7"
     pagecolor="#ffffff"
     bordercolor="#000000"
     borderopacity="0.25"
     inkscape:pageshadow="2"
     inkscape:pageopacity="0.0"
     inkscape:pagecheckerboard="0"
     inkscape:document-units="mm"
     showgrid="false"
     inkscape:zoom="5.0336924"
     inkscape:cx="57.711115"
     inkscape:cy="124.064"
     inkscape:window-width="1920"
     inkscape:window-height="1128"
     inkscape:window-x="0"
     inkscape:window-y="0"
     inkscape:window-maximized="1"
     inkscape:current-layer="g78555"
     showguides="true"
     inkscape:guide-bbox="true"
     fit-margin-top="0"
     fit-margin-left="0"
     fit-margin-right="0"
     fit-margin-bottom="0"
     inkscape:showpageshadow="2"
     inkscape:deskcolor="#d1d1d1">
    <sodipodi:guide
       position="26.608324,41.550427"
       orientation="0,-1"
       id="guide62573"
       inkscape:locked="false" />
    <sodipodi:guide
       position="20.879456,14.466576"
       orientation="0,-1"
       id="guide66307"
       inkscape:locked="false" />
  </sodipodi:namedview>
  <defs
     id="defs2">
    <inkscape:perspective
       sodipodi:type="inkscape:persp3d"
       inkscape:vp_x="0 : 635.96801 : 1"
       inkscape:vp_y="0 : 999.99996 : 0"
       inkscape:vp_z="1500 : 635.96801 : 1"
       inkscape:persp3d-origin="750 : 341.92255 : 1"
       id="perspective4362" />
    <clipPath
       id="clp12">
      <path
         d="m 45.315,71.927 h 12.92 v 15.867 h -12.92 z"
         id="path184"
         inkscape:connector-curvature="0" />
    </clipPath>
    <clipPath
       id="clp21">
      <path
         d="m 123.91,72.178 h 26.23 v 15.294 h -26.23 z"
         id="path592"
         inkscape:connector-curvature="0" />
    </clipPath>
    <clipPath
       id="clp9">
      <path
         d="m 413.96,49.857 h 31.76 v 8.719 h -31.76 z"
         id="path100"
         inkscape:connector-curvature="0" />
    </clipPath>
    <inkscape:perspective
       sodipodi:type="inkscape:persp3d"
       inkscape:vp_x="0 : 389.7996 : 1"
       inkscape:vp_y="0 : 999.99992 : 0"
       inkscape:vp_z="1500 : 389.7996 : 1"
       inkscape:persp3d-origin="749.99998 : 95.754155 : 1"
       id="perspective4362-535" />
    <clipPath
       id="clp12-6">
      <path
         d="m 45.315,71.927 h 12.92 v 15.867 h -12.92 z"
         id="path184-2"
         inkscape:connector-curvature="0" />
    </clipPath>
    <clipPath
       id="clp21-9">
      <path
         d="m 123.91,72.178 h 26.23 v 15.294 h -26.23 z"
         id="path592-12"
         inkscape:connector-curvature="0" />
    </clipPath>
    <clipPath
       id="clp9-7">
      <path
         d="m 413.96,49.857 h 31.76 v 8.719 h -31.76 z"
         id="path100-0"
         inkscape:connector-curvature="0" />
    </clipPath>
    <inkscape:perspective
       sodipodi:type="inkscape:persp3d"
       inkscape:vp_x="0 : 389.7996 : 1"
       inkscape:vp_y="0 : 999.99992 : 0"
       inkscape:vp_z="1500 : 389.7996 : 1"
       inkscape:persp3d-origin="749.99998 : 95.754155 : 1"
       id="perspective4362-5" />
    <clipPath
       id="clp12-3">
      <path
         d="m 45.315,71.927 h 12.92 v 15.867 h -12.92 z"
         id="path184-5"
         inkscape:connector-curvature="0" />
    </clipPath>
    <clipPath
       id="clp21-6">
      <path
         d="m 123.91,72.178 h 26.23 v 15.294 h -26.23 z"
         id="path592-2"
         inkscape:connector-curvature="0" />
    </clipPath>
    <clipPath
       id="clp9-9">
      <path
         d="m 413.96,49.857 h 31.76 v 8.719 h -31.76 z"
         id="path100-1"
         inkscape:connector-curvature="0" />
    </clipPath>
    <inkscape:perspective
       sodipodi:type="inkscape:persp3d"
       inkscape:vp_x="0 : 635.96801 : 1"
       inkscape:vp_y="0 : 999.99996 : 0"
       inkscape:vp_z="1500 : 635.96801 : 1"
       inkscape:persp3d-origin="750 : 341.92255 : 1"
       id="perspective4362-9" />
    <clipPath
       id="clp12-37">
      <path
         d="m 45.315,71.927 h 12.92 v 15.867 h -12.92 z"
         id="path184-4"
         inkscape:connector-curvature="0" />
    </clipPath>
    <clipPath
       id="clp21-5">
      <path
         d="m 123.91,72.178 h 26.23 v 15.294 h -26.23 z"
         id="path592-25"
         inkscape:connector-curvature="0" />
    </clipPath>
    <clipPath
       id="clp9-4">
      <path
         d="m 413.96,49.857 h 31.76 v 8.719 h -31.76 z"
         id="path100-7"
         inkscape:connector-curvature="0" />
    </clipPath>
    <inkscape:perspective
       sodipodi:type="inkscape:persp3d"
       inkscape:vp_x="0 : 635.96801 : 1"
       inkscape:vp_y="0 : 999.99996 : 0"
       inkscape:vp_z="1500 : 635.96801 : 1"
       inkscape:persp3d-origin="750 : 341.92255 : 1"
       id="perspective4362-6" />
    <clipPath
       id="clp12-8">
      <path
         d="m 45.315,71.927 h 12.92 v 15.867 h -12.92 z"
         id="path184-9"
         inkscape:connector-curvature="0" />
    </clipPath>
    <clipPath
       id="clp21-2">
      <path
         d="m 123.91,72.178 h 26.23 v 15.294 h -26.23 z"
         id="path592-6"
         inkscape:connector-curvature="0" />
    </clipPath>
    <clipPath
       id="clp9-6">
      <path
         d="m 413.96,49.857 h 31.76 v 8.719 h -31.76 z"
         id="path100-4"
         inkscape:connector-curvature="0" />
    </clipPath>
    <inkscape:perspective
       sodipodi:type="inkscape:persp3d"
       inkscape:vp_x="0 : 635.96801 : 1"
       inkscape:vp_y="0 : 999.99996 : 0"
       inkscape:vp_z="1500 : 635.96801 : 1"
       inkscape:persp3d-origin="750 : 341.92255 : 1"
       id="perspective4362-53" />
    <clipPath
       id="clp12-5">
      <path
         d="m 45.315,71.927 h 12.92 v 15.867 h -12.92 z"
         id="path184-6"
         inkscape:connector-curvature="0" />
    </clipPath>
    <clipPath
       id="clp21-29">
      <path
         d="m 123.91,72.178 h 26.23 v 15.294 h -26.23 z"
         id="path592-1"
         inkscape:connector-curvature="0" />
    </clipPath>
    <clipPath
       id="clp9-2">
      <path
         d="m 413.96,49.857 h 31.76 v 8.719 h -31.76 z"
         id="path100-70"
         inkscape:connector-curvature="0" />
    </clipPath>
  </defs>
  <g
     inkscape:label="Layer 1"
     inkscape:groupmode="layer"
     id="layer1"
     transform="translate(134.31887,576.54601)">
    <text
       xml:space="preserve"
       style="font-size:4.23333px;font-family:sans-serif;-inkscape-font-specification:sans-serif;fill:#fdf0e3;fill-opacity:1;stroke:#4a280d;stroke-width:15;stroke-linecap:round;stroke-linejoin:round;stroke-miterlimit:4;stroke-dasharray:none"
       x="-105.7908"
       y="-558.50726"
       id="text265343"><tspan
         sodipodi:role="line"
         id="tspan265341"
         style="stroke-width:15;stroke-miterlimit:4;stroke-dasharray:none"
         x="-105.7908"
         y="-558.50726" /></text>
    <text
       xml:space="preserve"
       style="font-size:4.23333px;font-family:sans-serif;-inkscape-font-specification:sans-serif;fill:#fdf0e3;fill-opacity:1;stroke:#4a280d;stroke-width:15;stroke-linecap:round;stroke-linejoin:round;stroke-miterlimit:4;stroke-dasharray:none"
       x="-106.25206"
       y="-560.1264"
       id="text268683"><tspan
         sodipodi:role="line"
         id="tspan268681"
         style="stroke-width:15"
         x="-106.25206"
         y="-560.1264" /></text>
    <text
       xml:space="preserve"
       style="font-size:4.23333px;font-family:sans-serif;-inkscape-font-specification:sans-serif;fill:#fdf0e3;fill-opacity:1;stroke:#4a280d;stroke-width:5;stroke-linecap:round;stroke-linejoin:round;stroke-miterlimit:4;stroke-dasharray:none"
       x="-78.450752"
       y="-551.28766"
       id="text270271"><tspan
         sodipodi:role="line"
         id="tspan270269"
         style="stroke-width:5;stroke-miterlimit:4;stroke-dasharray:none"
         x="-78.450752"
         y="-551.28766" /></text>
    <text
       xml:space="preserve"
       style="font-size:4.23333px;font-family:sans-serif;-inkscape-font-specification:sans-serif;fill:#fdf0e3;fill-opacity:1;stroke:#4a280d;stroke-width:4.99999;stroke-linecap:round;stroke-linejoin:round;stroke-miterlimit:4;stroke-dasharray:none"
       x="-75.665482"
       y="-548.79803"
       id="text275393"><tspan
         sodipodi:role="line"
         id="tspan275391"
         style="stroke-width:5"
         x="-75.665482"
         y="-548.79803" /></text>
    <g
       id="g46348">
      <g
         id="g57961"
         transform="rotate(-30,-112.35409,-551.13016)">
        <g
           id="g57911">
          <g
             id="g43251"
             transform="rotate(30,-112.35408,-551.13016)" />
          <g
             id="g78484"
             transform="rotate(30,-112.35409,-551.13016)">
            <g
               id="g78555"
               transform="rotate(-30,-112.35409,-551.13016)">
              <path
                 sodipodi:type="star"
                 style="fill:#ffdbf7;fill-opacity:1;stroke:#000000;stroke-width:21.7043;stroke-miterlimit:4;stroke-dasharray:none;stroke-opacity:1"
                 id="path4560"
                 sodipodi:sides="6"
                 sodipodi:cx="-5551.2134"
                 sodipodi:cy="-204.52565"
                 sodipodi:r1="1701.6108"
                 sodipodi:r2="1473.6381"
                 sodipodi:arg1="1.0471976"
                 sodipodi:arg2="1.5707963"
                 inkscape:flatsided="true"
                 inkscape:rounded="0"
                 inkscape:randomized="0"
                 inkscape:transform-center-x="1.5731476e-05"
                 inkscape:transform-center-y="7.9344316e-05"
                 transform="matrix(-0.00728526,0.01261844,-0.01259211,-0.00727006,-155.37153,-482.56942)"
                 d="m -4700.408,1269.1126 -1701.6109,-10e-5 -850.8053,-1473.63823 850.8055,-1473.63817 1701.6108,10e-5 850.8054,1473.63823 z" />
              <path
                 d="m -102.80351,-545.30354 c 0,0 0.20893,2.33619 0.72369,3.27004 0.51483,0.93375 -2.56548,-0.4583 -3.24755,-3.27949"
                 style="fill:#edcd9d;fill-opacity:1;fill-rule:nonzero;stroke:#000000;stroke-width:0.322;stroke-linecap:round;stroke-linejoin:miter;stroke-miterlimit:10;stroke-dasharray:none;stroke-opacity:1"
                 id="path69717" />
              <path
                 d="m -114.45384,-545.00503 c -2.66015,-1.53584 -5.98052,-3.83146 -8.07981,-7.99067 -1.80843,-1.5106 -2.12163,-2.04595 -2.03946,-2.41834 0.0798,-0.36162 0.54091,-0.48475 1.12463,-0.64042 0.81714,-0.21814 1.93631,-0.5167 2.5527,-1.58433 2.14938,-3.72282 8.32407,-4.19615 13.76434,-1.0552 5.06233,2.92274 6.96612,7.79009 4.62968,11.83692 l -0.004,0.007 -0.005,0.007 c -0.16794,0.2257 -0.32974,0.4568 -0.50092,0.70172 -1.62266,2.31945 -3.46182,4.94832 -10.20986,1.82298 -0.47944,-0.26024 -0.86787,-0.47733 -1.23156,-0.6873"
                 style="fill:#edcd9d;fill-opacity:1;fill-rule:nonzero;stroke:none;stroke-width:0.01003"
                 id="path69719" />
              <path
                 d="m -107.05576,-558.82506 c -2.65243,-1.53138 -5.55637,-2.26824 -8.17702,-2.07495 -2.6637,0.19646 -4.72124,1.32775 -5.7939,3.18565 -0.58505,1.01333 -1.62503,1.29068 -2.46074,1.51372 -0.6083,0.16233 -1.1338,0.30262 -1.23328,0.75397 -0.1138,0.51524 0.40863,1.1606 2.06621,2.54694 2.11801,4.17754 5.45259,6.48264 8.1249,8.0255 0.365,0.21073 0.75474,0.42835 1.2265,0.68485 l 0.009,0.005 0.009,0.004 c 3.03824,1.40714 5.37073,1.77735 7.1308,1.1318 1.56591,-0.57443 2.4694,-1.86591 3.26643,-3.00528 0.17056,-0.24388 0.33169,-0.47421 0.49831,-0.69801 l 0.0105,-0.0139 0.009,-0.0153 c 1.10867,-1.92027 1.3018,-4.14884 0.54368,-6.27502 -0.80752,-2.26508 -2.61551,-4.25989 -5.22858,-5.76855 m -0.1512,0.26189 c 5.37668,3.10423 6.68533,7.97392 4.57421,11.63047 -1.77733,2.38696 -3.19422,5.87358 -10.52601,2.47769 -0.39408,-0.21432 -0.80265,-0.44025 -1.21967,-0.68101 -2.80166,-1.61755 -6.00306,-3.91259 -8.03433,-7.95573 -4.69116,-3.91247 0.041,-1.68813 1.64788,-4.47146 2.11112,-3.65655 8.18123,-4.1042 13.55792,-0.99996"
                 style="fill:#000000;fill-opacity:1;fill-rule:nonzero;stroke:none;stroke-width:0.322;stroke-miterlimit:4;stroke-dasharray:none"
                 id="path69721" />
              <path
                 d="m -107.98011,-543.23583 c 0,0 -0.31566,2.13107 0.86638,2.5571 1.18231,0.42619 4.66851,-4.23056 4.66851,-4.23056"
                 style="fill:#edcd9d;fill-opacity:1;fill-rule:nonzero;stroke:#000000;stroke-width:0.322;stroke-linecap:round;stroke-linejoin:miter;stroke-miterlimit:10;stroke-dasharray:none;stroke-opacity:1"
                 id="path69723" />
              <path
                 d="m -105.2416,-544.33879 c -0.94314,-0.54476 -1.77196,-1.48109 -2.46315,-2.78317 -0.0139,-0.0262 -0.0197,-0.0561 -0.0169,-0.0855 l 1.54019,-15.74999 c 0.004,-0.043 0.0265,-0.0821 0.0614,-0.10766 0.0349,-0.0254 0.079,-0.0346 0.1211,-0.0254 0.95003,0.20685 1.89875,0.58144 2.82018,1.11344 1.86928,1.07922 3.480315,2.73031 4.536115,4.64941 1.168203,2.12321 1.602195,4.45153 1.254889,6.7333 -0.438644,2.88189 -2.041999,5.37834 -4.084804,6.35994 -1.28098,0.61572 -2.58422,0.57973 -3.76841,-0.10397"
                 style="fill:#b46945;fill-opacity:1;fill-rule:nonzero;stroke:none;stroke-width:0.01003"
                 id="path69725" />
              <path
                 d="m -103.10316,-562.10812 c -0.93481,-0.53971 -1.89834,-0.91996 -2.86358,-1.13015 -0.0843,-0.0183 -0.17256,2.1e-4 -0.2423,0.051 -0.0698,0.0508 -0.11447,0.12905 -0.12287,0.21501 l -1.5401,15.75004 c -0.006,0.0591 0.006,0.11867 0.0338,0.17113 0.70484,1.32779 1.55303,2.28435 2.52102,2.84322 1.21234,0.69994 2.60122,0.73882 3.9108,0.10928 2.086185,-1.00278 3.72222,-3.54359 4.16803,-6.473 0.352305,-2.3149 -0.08747,-4.67632 -1.271792,-6.82899 -1.068983,-1.94281 -2.700118,-3.61465 -4.593018,-4.70752 m -0.15121,0.26189 c 3.591065,2.0733 6.447977,6.4274 5.717097,11.22909 -0.716915,4.71049 -4.453247,7.98083 -7.628757,6.14745 -0.86792,-0.5011 -1.6944,-1.38432 -2.40514,-2.72317 l 1.5401,-15.75004 c 0.94186,0.20514 1.88193,0.58007 2.7767,1.09667"
                 style="fill:#000000;fill-opacity:1;fill-rule:nonzero;stroke:none;stroke-width:0.322;stroke-miterlimit:4;stroke-dasharray:none"
                 id="path69727" />
              <path
                 d="m -108.18802,-545.78141 c -0.95054,-0.54879 -2.39854,-1.99179 -1.4158,-5.4891 1.73461,-6.1723 1.06365,-10.49036 -1.99435,-12.83418 -0.0444,-0.0339 -0.0663,-0.0895 -0.0571,-0.14453 0.009,-0.0551 0.0477,-0.10066 0.10054,-0.11857 1.14068,-0.38656 4.01911,-0.70098 6.74946,0.87538 1.50774,0.87051 2.76982,2.19643 3.75121,3.94111 2.054298,3.65202 0.69387,8.15556 -1.09523,10.90252 -1.40227,2.15298 -3.16436,3.46158 -4.48896,3.33381 -0.49807,-0.0172 -1.06624,-0.1873 -1.54954,-0.46634"
                 style="fill:#b46945;fill-opacity:1;fill-rule:nonzero;stroke:none;stroke-width:0.01003"
                 id="path69729" />
              <path
                 d="m -104.72972,-563.62339 c -2.77732,-1.6035 -5.71062,-1.28172 -6.87363,-0.88757 -0.10569,0.0358 -0.18301,0.12702 -0.20117,0.2371 -0.0182,0.11017 0.0258,0.22138 0.11435,0.2892 3.0041,2.30239 3.65709,6.5663 1.94082,12.67333 -1.01048,3.59572 0.49712,5.09015 1.4857,5.66091 0.50128,0.28941 1.09122,0.46659 1.62012,0.48671 1.39982,0.12868 3.16927,-1.17404 4.6207,-3.40252 1.04811,-1.60917 1.77143,-3.48947 2.036755,-5.29463 0.3126,-2.12658 -0.0112,-4.11993 -0.936295,-5.76458 -0.99483,-1.76854 -2.27579,-3.11372 -3.80735,-3.99795 m -0.15119,0.26189 c 1.32326,0.76398 2.62635,1.98434 3.69503,3.88435 3.304357,5.87437 -2.25031,14.31919 -5.43791,14.01166 -0.40704,-0.0142 -0.9595,-0.14131 -1.48865,-0.44682 -1.16613,-0.67326 -2.2182,-2.21288 -1.34583,-5.31724 1.2683,-4.51307 1.80967,-10.03847 -2.04796,-12.99508 0.99931,-0.3387 3.85719,-0.73506 6.62532,0.86313"
                 style="fill:#000000;fill-opacity:1;fill-rule:nonzero;stroke:none;stroke-width:0.322;stroke-miterlimit:10;stroke-dasharray:none"
                 id="path69731" />
              <path
                 d="m -113.3228,-547.61017 c -0.77689,-0.44876 -2.47761,-1.8753 -1.49301,-5.42157 1.31008,-4.71825 0.95456,-8.46089 -0.90568,-9.5349 -0.39375,-0.22733 -0.85972,-0.34441 -1.38489,-0.34811 -0.0267,-1.3e-4 -0.0522,-0.007 -0.0745,-0.0202 -0.0276,-0.0159 -0.0501,-0.0406 -0.0633,-0.0711 -0.0238,-0.055 -0.0126,-0.11916 0.0283,-0.16295 0.23616,-0.25279 1.22448,-0.93011 2.62376,-1.29579 1.22431,-0.31997 3.08594,-0.46922 5.00143,0.63668 0.88243,0.50948 1.70832,1.24689 2.4545,2.19134 1.55432,2.16477 2.0339,4.73007 1.39101,7.4241 -0.78792,3.30251 -3.08289,6.09617 -4.36779,6.76463 -0.92158,0.47947 -2.21138,0.41441 -3.20951,-0.16186"
                 style="fill:#b46945;fill-opacity:1;fill-rule:nonzero;stroke:none;stroke-width:0.01003"
                 id="path69733" />
              <path
                 d="m -109.51517,-563.95912 c -1.95988,-1.13153 -3.86345,-0.97905 -5.11532,-0.65206 -1.43078,0.3739 -2.45042,1.07599 -2.69592,1.33891 -0.0818,0.0878 -0.10412,0.21565 -0.0567,0.32585 0.0263,0.0612 0.0713,0.11042 0.12662,0.14237 0.0444,0.0256 0.0955,0.0401 0.14905,0.0405 0.49858,0.003 0.93939,0.11372 1.31029,0.32786 1.79866,1.03846 2.12668,4.7138 0.83558,9.36345 -1.01302,3.64846 0.75569,5.12675 1.56316,5.59295 1.04131,0.60119 2.38963,0.66761 3.35522,0.16525 1.31004,-0.6815 3.64675,-3.518 4.44516,-6.86393 0.30387,-1.27376 0.36463,-2.52262 0.18045,-3.71172 -0.21131,-1.36437 -0.74681,-2.65288 -1.59161,-3.82973 -0.002,-0.004 -0.006,-0.007 -0.008,-0.011 -0.75821,-0.95974 -1.59849,-1.70952 -2.49769,-2.22867 m -0.1512,0.26189 c 0.81233,0.469 1.62868,1.16315 2.41166,2.15421 4.29809,5.98704 -0.99711,12.95619 -2.92801,13.96082 -0.84161,0.43785 -2.06571,0.41767 -3.06446,-0.15895 -1.29276,-0.74638 -2.20726,-2.42558 -1.423,-5.25016 1.17033,-4.21501 1.1907,-8.45545 -0.97573,-9.70624 -0.40695,-0.23495 -0.89123,-0.36444 -1.45948,-0.36836 0.42481,-0.45496 3.89912,-2.67508 7.43902,-0.63132"
                 style="fill:#000000;fill-opacity:1;fill-rule:nonzero;stroke:none;stroke-width:0.322;stroke-miterlimit:10;stroke-dasharray:none"
                 id="path69735" />
              <path
                 d="m -117.10078,-549.33345 c -1.57874,-0.91183 -1.22342,-3.17659 -0.87117,-4.44547 0.59493,-2.14298 0.29868,-3.57468 -0.88073,-4.25562 -0.79748,-0.46042 -1.81089,-0.46782 -2.54415,-0.38633 -0.0224,0.0262 -0.0505,0.0482 -0.0884,0.0585 -0.039,0.0108 -0.0849,0.005 -0.11997,-0.0153 -0.10406,-0.0601 -0.0806,-0.18031 -0.0719,-0.22568 0.10134,-0.52034 1.56514,-4.08017 5.0277,-4.56624 1.22188,-0.17174 2.34717,0.0334 3.34487,0.60947 1.89742,1.09547 3.0762,3.48201 2.93307,5.9383 -0.20171,3.4639 -3.08491,6.89948 -4.56918,7.44345 -0.55944,0.20489 -1.42053,0.27189 -2.1599,-0.15499"
                 style="fill:#b46945;fill-opacity:1;fill-rule:nonzero;stroke:none;stroke-width:0.01003"
                 id="path69737" />
              <path
                 d="m -113.22896,-562.6911 c -1.0275,-0.59323 -2.18535,-0.80459 -3.44139,-0.62824 -1.87739,0.2636 -3.14106,1.404 -3.87059,2.31434 -0.813,1.01457 -1.22245,2.05435 -1.28453,2.37291 -0.0459,0.23622 0.0711,0.34294 0.14479,0.38552 0.0699,0.0404 0.15755,0.0515 0.23554,0.0301 0.0464,-0.0128 0.0845,-0.0346 0.11538,-0.0596 1.22603,-0.12777 1.98066,0.12944 2.40159,0.37247 1.11201,0.64202 1.38484,2.01619 0.81058,4.08424 -0.33462,1.20506 -0.40095,2.22544 -0.19731,3.03259 0.17917,0.70973 0.57282,1.25759 1.13864,1.58427 0.78463,0.453 1.69619,0.38283 2.28761,0.16607 1.51712,-0.55594 4.46306,-4.05444 4.66821,-7.57645 0.14629,-2.51214 -1.06263,-4.95477 -3.00852,-6.07823 m -0.1512,0.26189 c 1.92243,1.10992 2.99287,3.4815 2.85786,5.79876 -0.19857,3.4093 -3.06039,6.79342 -4.4704,7.31007 -0.58923,0.21597 -1.38828,0.22786 -2.03236,-0.144 -0.8972,-0.518 -1.49341,-1.781 -0.80125,-4.27412 0.69332,-2.49674 0.10823,-3.81551 -0.95071,-4.42689 -0.7577,-0.43745 -1.75805,-0.5126 -2.70614,-0.39763 -0.0234,0.0417 -0.0389,0.0589 -0.0463,0.0546 -0.0996,-0.0575 1.27653,-4.00255 4.90111,-4.51148 1.24733,-0.17511 2.34241,0.0678 3.24821,0.59073"
                 style="fill:#000000;fill-opacity:1;fill-rule:nonzero;stroke:none;stroke-width:0.322;stroke-miterlimit:10;stroke-dasharray:none"
                 id="path69739" />
              <path
                 d="m -120.99112,-550.07914 c 0,0 -0.38121,2.6474 0.81885,3.28838 1.20006,0.64097 2.64238,-1.06084 2.64238,-1.06084"
                 style="fill:#edcd9d;fill-opacity:1;fill-rule:nonzero;stroke:#000000;stroke-width:0.322;stroke-linecap:round;stroke-linejoin:miter;stroke-miterlimit:10;stroke-dasharray:none;stroke-opacity:1"
                 id="path69741" />
              <path
                 d="m -119.58268,-557.63393 c 1.0545,-3.09082 -0.66804,-6.40051 -1.56451,-5.63473 -0.89639,0.76584 -0.66641,4.56305 -0.22811,5.30798"
                 style="fill:#edcd9d;fill-opacity:1;fill-rule:nonzero;stroke:#000000;stroke-width:0.322;stroke-linecap:round;stroke-linejoin:miter;stroke-miterlimit:10;stroke-dasharray:none;stroke-opacity:1"
                 id="path69743" />
              <path
                 d="m -120.18365,-560.46158 c 0.087,1.10252 -0.0673,1.9856 -0.27898,2.00354 -0.21164,0.0179 -0.63995,-0.82173 -0.72696,-1.92416 -0.087,-1.10252 0.0677,-2.01407 0.34553,-2.036 0.27777,-0.0219 0.57345,0.85411 0.66041,1.95662"
                 style="fill:#e89595;fill-opacity:1;fill-rule:nonzero;stroke:none;stroke-width:0.01003"
                 id="path69745" />
              <path
                 d="m -125.04739,-549.92542 c -1.23996,-0.71589 -2.19957,-1.67864 -2.56698,-2.57547 -0.60824,-1.50875 0.23891,-2.0276 0.60062,-2.24891 0.0443,-0.0273 0.0824,-0.0505 0.10463,-0.0677 0.51304,-0.39533 0.83881,-0.97001 0.92643,-1.13681 1.13707,-2.16365 2.74621,-3.63965 4.53102,-4.15591 1.34168,-0.3883 2.72296,-0.20522 3.99497,0.52917 0.32486,0.18757 0.64644,0.41331 0.95544,0.67068 1.44843,1.20734 2.03719,3.1314 1.57455,5.14714 -0.53217,2.31832 -2.29314,4.16842 -4.48653,4.71355 -1.72657,0.5119 -3.78259,0.19324 -5.63398,-0.87565"
                 style="fill:#edcd9d;fill-opacity:1;fill-rule:nonzero;stroke:none;stroke-width:0.01003"
                 id="path69747" />
              <path
                 d="m -117.38108,-559.71202 c -1.30849,-0.75545 -2.73063,-0.94337 -4.1126,-0.54347 -1.82465,0.5279 -3.46644,2.03056 -4.62288,4.23096 -0.0599,0.11378 -0.38346,0.70086 -0.88486,1.08728 -0.0159,0.0123 -0.0541,0.0357 -0.0913,0.0584 -0.36048,0.22075 -1.31812,0.80702 -0.66231,2.43358 0.38035,0.92838 1.36396,1.91877 2.63205,2.65091 1.88509,1.08835 3.98145,1.41258 5.75271,0.88988 2.24501,-0.56073 4.04663,-2.45396 4.59077,-4.82489 0.4756,-2.07231 -0.13193,-4.05249 -1.62506,-5.29697 -0.31566,-0.26309 -0.64422,-0.49379 -0.97656,-0.68566 m -0.1512,0.26189 c 0.31487,0.1818 0.62703,0.4 0.93417,0.65597 3.28484,2.73768 1.42266,8.53556 -2.85163,9.59788 -1.89899,0.5628 -3.9494,0.0481 -5.52204,-0.8599 -1.21928,-0.70396 -2.15143,-1.64448 -2.50276,-2.50214 -0.63746,-1.5811 0.42087,-1.95684 0.65777,-2.13948 0.50796,-0.39155 0.84814,-0.95849 0.9678,-1.18601 1.93302,-3.67807 5.26383,-5.32889 8.31669,-3.56632"
                 style="fill:#000000;fill-opacity:1;fill-rule:nonzero;stroke:none;stroke-width:0.322;stroke-miterlimit:9;stroke-dasharray:none"
                 id="path69749" />
              <path
                 d="m -125.69065,-552.13621 c -0.24384,0.20008 -0.73297,0.007 -1.09254,-0.43122 -0.35956,-0.43818 -0.45329,-0.95567 -0.20937,-1.1557 0.24389,-0.20015 0.73302,-0.007 1.09259,0.43114 0.35943,0.43822 0.45315,0.95572 0.20932,1.15578"
                 style="fill:#e89595;fill-opacity:1;fill-rule:nonzero;stroke:none;stroke-width:0.01003"
                 id="path69751" />
              <path
                 d="m -120.88216,-554.41806 c -0.15793,0.27352 -0.50772,0.36725 -0.78125,0.20933 -0.27352,-0.15792 -0.36725,-0.50772 -0.20933,-0.78124 0.15792,-0.27353 0.50771,-0.36726 0.78124,-0.20934 0.27353,0.15792 0.36726,0.50772 0.20934,0.78125"
                 style="fill:#000000;fill-opacity:1;fill-rule:nonzero;stroke:none;stroke-width:0.01003"
                 id="path69753" />
              <path
                 d="m -123.96644,-557.15831 c -0.15792,0.27353 -0.50771,0.36725 -0.78124,0.20933 -0.27354,-0.15792 -0.36717,-0.50766 -0.20925,-0.78119 0.15792,-0.27353 0.50763,-0.36731 0.78116,-0.20939 0.27353,0.15792 0.36725,0.50772 0.20933,0.78125"
                 style="fill:#000000;fill-opacity:1;fill-rule:nonzero;stroke:none;stroke-width:0.01003"
                 id="path69755" />
              <path
                 d="m -117.2298,-557.34217 c 2.63693,0.85511 0.45791,-0.54738 1.41053,-0.60021 -0.20559,-0.32936 -2.09616,-2.53817 -4.75922,-2.18777 -1.42022,0.38267 -3.00574,2.80812 -1.86184,3.17426 1.14375,0.36617 2.26742,-1.8886 5.21053,-0.38628"
                 style="fill:#b46945;fill-opacity:1;fill-rule:nonzero;stroke:none;stroke-width:0.01003"
                 id="path69757" />
              <path
                 d="m -118.06651,-557.02495 c 2.16136,-2.4483 5.8895,-2.59354 5.66904,-1.43538 -0.22051,1.15825 -3.63203,2.84134 -4.49642,2.82999"
                 style="fill:#edcd9d;fill-opacity:1;fill-rule:nonzero;stroke:#000000;stroke-width:0.322;stroke-linecap:round;stroke-linejoin:miter;stroke-miterlimit:10;stroke-dasharray:none;stroke-opacity:1"
                 id="path69759" />
              <path
                 d="m -115.50678,-556.87481 c -0.9726,0.52633 -1.8425,0.7432 -1.94475,0.557 -0.10211,-0.18624 0.49184,-0.91809 1.46458,-1.44446 0.9726,-0.52633 1.86861,-0.7543 2.00116,-0.50926 0.13263,0.24509 -0.54839,0.87039 -1.52099,1.39672"
                 style="fill:#e89595;fill-opacity:1;fill-rule:nonzero;stroke:none;stroke-width:0.01003"
                 id="path69761" />
              <path
                 d="m -121.88544,-572.16555 q 0.21802,0 0.34925,0.0656 0.13123,0.0656 0.20108,0.17357 0.0699,0.10795 0.091,0.24553 0.0233,0.13759 0.0233,0.2794 0,0.15452 -0.0402,0.29211 -0.0381,0.13758 -0.12065,0.2413 -0.0804,0.1016 -0.20744,0.16298 -0.127,0.0593 -0.30268,0.0593 -0.1397,0 -0.22437,-0.0212 -0.0826,-0.019 -0.12911,-0.0593 -0.0444,-0.0402 -0.0593,-0.1016 -0.0148,-0.0614 -0.0148,-0.14393 v -0.79587 q 0,-0.091 0.0148,-0.1651 0.0169,-0.0741 0.0635,-0.12488 0.0466,-0.0529 0.13123,-0.0804 0.0868,-0.0275 0.22437,-0.0275 z m 0.008,1.3081 q 0.13123,0 0.2159,-0.0466 0.0868,-0.0487 0.13758,-0.127 0.0508,-0.0783 0.0699,-0.1778 0.0212,-0.0995 0.0212,-0.2032 0,-0.0952 -0.0148,-0.1905 -0.0148,-0.0974 -0.0614,-0.17568 -0.0466,-0.0783 -0.13335,-0.127 -0.0868,-0.0487 -0.23072,-0.0487 -0.13123,0 -0.18203,0.0381 -0.0508,0.0381 -0.0508,0.11642 v 0.81069 q 0,0.0656 0.0466,0.0995 0.0487,0.0317 0.18204,0.0317 z"
                 style="font-weight:bold;font-size:2.11667px;font-family:Sniglet;-inkscape-font-specification:'Sniglet Bold';fill:#000000;stroke-width:0.315912;stroke-linecap:round;stroke-linejoin:round"
                 id="path79157" />
              <path
                 d="m -120.51807,-571.05853 q -0.0741,0 -0.15664,-0.0106 -0.0804,-0.0127 -0.17568,-0.0508 0.0191,0.12912 0.10583,0.19474 0.0889,0.0656 0.254,0.0656 0.0593,0 0.10584,-0.006 0.0487,-0.008 0.0847,-0.0169 0.036,-0.0106 0.0635,-0.0169 0.0275,-0.008 0.0508,-0.008 0.0296,0 0.0572,0.019 0.0275,0.0169 0.0275,0.0593 0,0.0529 -0.0444,0.0868 -0.0423,0.0339 -0.10583,0.055 -0.0614,0.019 -0.13124,0.0254 -0.0699,0.008 -0.12276,0.008 -0.12489,0 -0.23072,-0.0339 -0.10372,-0.0339 -0.17992,-0.1016 -0.0762,-0.0698 -0.11853,-0.17145 -0.0423,-0.1016 -0.0423,-0.23706 0,-0.13124 0.0402,-0.23284 0.0423,-0.1016 0.1143,-0.17145 0.072,-0.0698 0.16934,-0.10583 0.0995,-0.036 0.21378,-0.036 0.0889,0 0.17145,0.0233 0.0847,0.0233 0.14817,0.0698 0.0656,0.0466 0.10371,0.11853 0.0402,0.0699 0.0402,0.1651 0,0.0847 -0.0318,0.14394 -0.0318,0.0593 -0.091,0.0952 -0.0572,0.036 -0.1397,0.0529 -0.0804,0.0169 -0.17991,0.0169 z m -0.0148,-0.49107 q -0.0572,0 -0.11007,0.0148 -0.0529,0.0127 -0.0974,0.0445 -0.0423,0.0296 -0.072,0.0804 -0.0296,0.0487 -0.0402,0.12277 0.0804,0.036 0.15664,0.0508 0.0762,0.0127 0.16086,0.0127 0.12489,0 0.18415,-0.0296 0.0614,-0.0317 0.0614,-0.11218 0,-0.0741 -0.0572,-0.12912 -0.055,-0.055 -0.18627,-0.055 z"
                 style="font-weight:bold;font-size:2.11667px;font-family:Sniglet;-inkscape-font-specification:'Sniglet Bold';fill:#000000;stroke-width:0.315912;stroke-linecap:round;stroke-linejoin:round"
                 id="path79159" />
              <path
                 d="m -119.50207,-571.77397 q 0.0444,0 0.11218,0.008 0.0677,0.006 0.12912,0.0275 0.0614,0.019 0.10583,0.055 0.0444,0.036 0.0444,0.091 0,0.0317 -0.0191,0.055 -0.0169,0.0233 -0.055,0.0233 -0.0275,0 -0.0635,-0.008 -0.0339,-0.008 -0.0762,-0.019 -0.0402,-0.0127 -0.0889,-0.0212 -0.0466,-0.008 -0.0995,-0.008 -0.0889,0 -0.14605,0.0275 -0.055,0.0275 -0.055,0.0868 0,0.0339 0.0191,0.0571 0.0212,0.0233 0.055,0.0423 0.036,0.0169 0.0825,0.0296 0.0487,0.0127 0.1016,0.0254 0.0656,0.0169 0.12911,0.0381 0.0656,0.0212 0.11642,0.0593 0.0508,0.036 0.0825,0.0931 0.0318,0.055 0.0318,0.13758 0,0.15664 -0.11853,0.24977 -0.11854,0.091 -0.34925,0.091 -0.0508,0 -0.12066,-0.008 -0.0699,-0.006 -0.13123,-0.0275 -0.0614,-0.019 -0.10583,-0.055 -0.0423,-0.0381 -0.0423,-0.0995 0,-0.0423 0.019,-0.0635 0.0212,-0.0233 0.0508,-0.0233 0.0233,0 0.0487,0.0148 0.0254,0.0148 0.0614,0.0317 0.036,0.0169 0.0868,0.0317 0.0508,0.0148 0.12489,0.0148 0.0275,0 0.072,-0.002 0.0444,-0.004 0.0868,-0.019 0.0444,-0.0148 0.0741,-0.0402 0.0318,-0.0275 0.0318,-0.0762 0,-0.0381 -0.0212,-0.0635 -0.0212,-0.0275 -0.0571,-0.0466 -0.036,-0.019 -0.0847,-0.0317 -0.0466,-0.0148 -0.0995,-0.0296 -0.0614,-0.0169 -0.12489,-0.0381 -0.0614,-0.0212 -0.11218,-0.055 -0.0508,-0.0339 -0.0825,-0.0847 -0.0318,-0.0529 -0.0318,-0.12912 0,-0.072 0.0296,-0.13335 0.0296,-0.0635 0.0847,-0.11006 0.055,-0.0466 0.13123,-0.072 0.0783,-0.0254 0.17357,-0.0254 z"
                 style="font-weight:bold;font-size:2.11667px;font-family:Sniglet;-inkscape-font-specification:'Sniglet Bold';fill:#000000;stroke-width:0.315912;stroke-linecap:round;stroke-linejoin:round"
                 id="path79161" />
              <path
                 d="m -118.88612,-570.8003 q -0.004,-0.0783 -0.008,-0.1778 -0.002,-0.1016 -0.002,-0.22225 0,-0.15029 0.002,-0.25612 0.002,-0.10795 0.0106,-0.17568 0.0106,-0.0698 0.0318,-0.1016 0.0212,-0.0339 0.0593,-0.0339 0.036,0 0.0635,0.0254 0.0275,0.0254 0.0318,0.11007 0.0127,0.22225 0.0127,0.42968 0,0.10584 -0.004,0.19897 -0.004,0.091 -0.008,0.20108 -0.002,0.0508 -0.0106,0.0783 -0.006,0.0275 -0.019,0.0423 -0.0127,0.0148 -0.0296,0.0169 -0.0148,0.004 -0.036,0.004 -0.0381,0 -0.0635,-0.0254 -0.0254,-0.0275 -0.0296,-0.1143 z m 0.0953,-1.35044 q 0.0487,0 0.0889,0.0381 0.0423,0.0381 0.0423,0.091 0,0.0508 -0.0423,0.0889 -0.0423,0.036 -0.0952,0.036 -0.0444,0 -0.0847,-0.036 -0.0381,-0.0381 -0.0381,-0.0931 0,-0.0508 0.0381,-0.0868 0.0402,-0.0381 0.091,-0.0381 z"
                 style="font-weight:bold;font-size:2.11667px;font-family:Sniglet;-inkscape-font-specification:'Sniglet Bold';fill:#000000;stroke-width:0.315912;stroke-linecap:round;stroke-linejoin:round"
                 id="path79163" />
              <path
                 d="m -118.00559,-570.37908 q 0.0995,0 0.16722,-0.0402 0.0699,-0.0381 0.11218,-0.11218 0.0423,-0.072 0.0593,-0.17357 0.0191,-0.10372 0.0191,-0.23283 -0.0191,0.0677 -0.055,0.1143 -0.036,0.0466 -0.0847,0.0762 -0.0466,0.0275 -0.10583,0.0402 -0.0593,0.0127 -0.12277,0.0127 -0.0974,0 -0.18415,-0.0275 -0.0868,-0.0275 -0.1524,-0.0868 -0.0635,-0.0593 -0.1016,-0.15028 -0.0381,-0.0931 -0.0381,-0.22225 0,-0.12489 0.036,-0.2286 0.0381,-0.10584 0.10795,-0.18204 0.072,-0.0762 0.17357,-0.11853 0.1016,-0.0423 0.23283,-0.0423 0.0698,0 0.12277,0.0127 0.055,0.0127 0.0974,0.0339 0.0423,0.0212 0.0741,0.0508 0.0339,0.0296 0.0614,0.0635 0.0804,0.1016 0.11642,0.2413 0.036,0.13759 0.036,0.33232 0,0.14394 -0.0254,0.29422 -0.0233,0.15028 -0.0868,0.27093 -0.0635,0.12277 -0.17568,0.19897 -0.11219,0.0783 -0.28787,0.0783 -0.0317,0 -0.072,-0.004 -0.0381,-0.002 -0.0804,-0.008 -0.0402,-0.006 -0.0804,-0.019 -0.0402,-0.0106 -0.0741,-0.0296 -0.0423,-0.0233 -0.0677,-0.0444 -0.0254,-0.0212 -0.0254,-0.0699 0,-0.0402 0.0169,-0.0741 0.019,-0.0317 0.0635,-0.0317 0.0212,0 0.0466,0.0127 0.0254,0.0127 0.0614,0.0254 0.0381,0.0148 0.0889,0.0275 0.0529,0.0127 0.127,0.0127 z m 0.0106,-0.508 q 0.0825,0 0.1397,-0.0296 0.0593,-0.0317 0.0952,-0.0825 0.0381,-0.0508 0.055,-0.1143 0.0191,-0.0635 0.0191,-0.127 0,-0.0529 -0.0148,-0.10583 -0.0127,-0.055 -0.0444,-0.0995 -0.0318,-0.0444 -0.0868,-0.072 -0.055,-0.0275 -0.13758,-0.0275 -0.1397,0 -0.22649,0.0847 -0.0847,0.0847 -0.0847,0.24977 0,0.15451 0.0762,0.23918 0.0762,0.0847 0.20956,0.0847 z"
                 style="font-weight:bold;font-size:2.11667px;font-family:Sniglet;-inkscape-font-specification:'Sniglet Bold';fill:#000000;stroke-width:0.315912;stroke-linecap:round;stroke-linejoin:round"
                 id="path79165" />
              <path
                 d="m -116.74406,-571.57077 q -0.0783,0 -0.14181,0.0254 -0.0614,0.0254 -0.1397,0.0762 0,0.0444 0,0.13123 0,0.0847 -0.002,0.18627 -0.002,0.0995 -0.004,0.19685 -0.002,0.0974 -0.008,0.16299 -0.004,0.0423 -0.0106,0.0677 -0.004,0.0233 -0.0148,0.036 -0.008,0.0127 -0.0254,0.0169 -0.0148,0.002 -0.0402,0.002 -0.0254,0 -0.0423,-0.002 -0.0148,-0.004 -0.0254,-0.0148 -0.0106,-0.0127 -0.0169,-0.036 -0.006,-0.0233 -0.0106,-0.0635 -0.004,-0.0381 -0.008,-0.1016 -0.002,-0.0635 -0.004,-0.13759 -0.002,-0.0762 -0.004,-0.1524 0,-0.0783 0,-0.14393 0,-0.10795 0.002,-0.17569 0.004,-0.0677 0.0127,-0.12065 0.0127,-0.0889 0.0339,-0.11218 0.0212,-0.0233 0.0571,-0.0233 0.0529,0 0.0783,0.0296 0.0275,0.0296 0.0339,0.0974 0.0783,-0.0677 0.16721,-0.10795 0.091,-0.0402 0.18627,-0.0402 0.091,0 0.1651,0.0423 0.0762,0.0423 0.12489,0.13759 0.0296,0.0572 0.0444,0.127 0.0148,0.0677 0.0212,0.14393 0.002,0.0339 0.004,0.0677 0.002,0.0317 0.002,0.0698 0.002,0.036 0.002,0.0825 0,0.0466 0,0.11006 0,0.0677 -0.002,0.127 -0.002,0.0593 -0.0127,0.10372 -0.008,0.0423 -0.0318,0.0677 -0.0233,0.0233 -0.0635,0.0233 -0.0974,0 -0.1016,-0.0931 0,-0.006 0,-0.0529 0,-0.0487 -0.002,-0.11219 0,-0.0635 -0.002,-0.12911 0,-0.0656 -0.002,-0.10795 -0.002,-0.0339 -0.006,-0.072 -0.002,-0.0402 -0.008,-0.0804 -0.004,-0.0402 -0.0127,-0.0762 -0.008,-0.0381 -0.0212,-0.0677 -0.0296,-0.0699 -0.0741,-0.0889 -0.0444,-0.019 -0.0953,-0.019 z"
                 style="font-weight:bold;font-size:2.11667px;font-family:Sniglet;-inkscape-font-specification:'Sniglet Bold';fill:#000000;stroke-width:0.315912;stroke-linecap:round;stroke-linejoin:round"
                 id="path79167" />
              <path
                 d="m -115.38727,-572.05337 q 0,0.127 -0.008,0.2667 -0.006,0.13758 -0.0169,0.26882 0.0275,-0.0572 0.072,-0.0974 0.0444,-0.0423 0.0974,-0.0677 0.055,-0.0254 0.1143,-0.0381 0.0593,-0.0127 0.1143,-0.0127 0.0953,0 0.1778,0.036 0.0847,0.0339 0.14605,0.1016 0.0635,0.0656 0.0974,0.1651 0.036,0.0974 0.036,0.22437 0,0.12277 -0.036,0.22437 -0.036,0.1016 -0.10795,0.17568 -0.0699,0.072 -0.17569,0.11218 -0.10371,0.0402 -0.23918,0.0402 -0.18415,0 -0.28998,-0.0741 -0.10372,-0.0741 -0.15452,-0.19685 -0.0508,-0.12489 -0.0635,-0.28575 -0.0106,-0.16087 -0.0106,-0.33656 0,-0.1778 0.006,-0.32173 0.006,-0.14393 0.019,-0.23283 0.0127,-0.0804 0.0423,-0.1143 0.0296,-0.0339 0.0783,-0.0339 0.036,0 0.0572,0.0169 0.0212,0.0148 0.0296,0.0423 0.0106,0.0275 0.0127,0.0635 0.002,0.0339 0.002,0.0741 z m 0.31326,0.52917 q -0.0614,0 -0.11853,0.0212 -0.055,0.0191 -0.0995,0.0614 -0.0423,0.0423 -0.0677,0.10795 -0.0254,0.0635 -0.0254,0.15452 0,0.16086 0.0783,0.24553 0.0804,0.0825 0.21378,0.0825 0.055,0 0.11219,-0.0148 0.0571,-0.0169 0.10371,-0.055 0.0466,-0.0402 0.0762,-0.10583 0.0296,-0.0656 0.0296,-0.16299 0,-0.0868 -0.0254,-0.15028 -0.0233,-0.0635 -0.0656,-0.10372 -0.0423,-0.0423 -0.0974,-0.0614 -0.055,-0.019 -0.1143,-0.019 z"
                 style="font-weight:bold;font-size:2.11667px;font-family:Sniglet;-inkscape-font-specification:'Sniglet Bold';fill:#000000;stroke-width:0.315912;stroke-linecap:round;stroke-linejoin:round"
                 id="path79169" />
              <path
                 d="m -114.13209,-570.28172 q -0.0275,0.0487 -0.0529,0.072 -0.0233,0.0233 -0.055,0.0233 -0.0296,0 -0.0593,-0.019 -0.0296,-0.019 -0.0296,-0.0529 0,-0.0317 0.0212,-0.091 0.0233,-0.0593 0.055,-0.12912 0.0339,-0.0698 0.0699,-0.14393 0.036,-0.0741 0.0656,-0.13547 l 0.0148,-0.0317 q -0.0635,-0.12488 -0.13123,-0.2667 -0.0656,-0.14181 -0.12065,-0.26882 -0.055,-0.127 -0.091,-0.22013 -0.0339,-0.0952 -0.0339,-0.12488 0,-0.0275 0.0212,-0.0466 0.0233,-0.0212 0.0572,-0.0212 0.0296,0 0.0571,0.0127 0.0275,0.0106 0.0508,0.0508 0.0339,0.0635 0.0698,0.14605 0.0381,0.0804 0.0741,0.16934 0.0381,0.0889 0.0762,0.17992 0.0402,0.091 0.0804,0.17568 0.0466,-0.0868 0.0995,-0.18203 0.0529,-0.0953 0.1016,-0.18416 0.0508,-0.0889 0.0931,-0.16298 0.0423,-0.0762 0.072,-0.127 0.0296,-0.0487 0.0593,-0.0698 0.0296,-0.0212 0.0614,-0.0212 0.0212,0 0.0423,0.019 0.0212,0.0169 0.0212,0.0466 0,0.0444 -0.0402,0.14393 -0.0381,0.0974 -0.0995,0.22649 -0.0614,0.12912 -0.1397,0.27728 -0.0762,0.14605 -0.1524,0.28787 -0.0762,0.1397 -0.14605,0.26247 -0.0677,0.12276 -0.11218,0.20531 z"
                 style="font-weight:bold;font-size:2.11667px;font-family:Sniglet;-inkscape-font-specification:'Sniglet Bold';fill:#000000;stroke-width:0.315912;stroke-linecap:round;stroke-linejoin:round"
                 id="path79171" />
              <path
                 d="m -111.41429,-570.73257 q -0.0127,-0.036 -0.0169,-0.0804 -0.002,-0.0444 -0.002,-0.11007 0,-0.0466 0,-0.072 0.002,-0.0275 0.002,-0.0466 0,-0.0212 0,-0.0402 0.002,-0.0212 0.002,-0.0571 0,-0.0741 -0.004,-0.14816 -0.002,-0.0762 -0.0212,-0.13547 -0.0191,-0.0614 -0.0593,-0.0995 -0.0402,-0.0381 -0.11642,-0.0381 -0.12912,0 -0.20108,0.12277 -0.072,0.12277 -0.0868,0.39159 -0.004,0.0847 -0.004,0.15451 0,0.0698 -0.008,0.12065 -0.008,0.0487 -0.0317,0.0762 -0.0212,0.0275 -0.072,0.0275 -0.0466,0 -0.0677,-0.0233 -0.0212,-0.0254 -0.0318,-0.0741 -0.008,-0.0487 -0.0106,-0.11853 0,-0.0699 -0.006,-0.16298 -0.006,-0.1016 -0.0212,-0.19474 -0.0127,-0.0931 -0.0444,-0.16298 -0.0296,-0.072 -0.0825,-0.1143 -0.0508,-0.0423 -0.13123,-0.0423 -0.0762,0 -0.11853,0.0381 -0.0402,0.036 -0.0593,0.0974 -0.019,0.0593 -0.0233,0.13547 -0.002,0.0741 -0.002,0.15028 0,0.0381 0,0.0571 0.002,0.0169 0.002,0.0317 0,0.0148 0,0.0381 0.002,0.0233 0.002,0.072 0,0.0699 -0.004,0.12065 -0.002,0.0508 -0.0148,0.0868 -0.0148,0.0423 -0.0402,0.0529 -0.0254,0.008 -0.0466,0.008 -0.0656,0 -0.0847,-0.0466 -0.019,-0.0466 -0.0212,-0.13547 0,-0.0487 -0.002,-0.10795 0,-0.0614 0,-0.14816 0,-0.0423 0,-0.0741 0,-0.0317 0,-0.0614 0.002,-0.0296 0.002,-0.0593 0.002,-0.0317 0.004,-0.072 0.006,-0.12911 0.0466,-0.20531 0.0402,-0.0783 0.0953,-0.11854 0.055,-0.0402 0.11853,-0.0508 0.0635,-0.0127 0.11642,-0.0127 0.1143,0 0.19261,0.0339 0.0783,0.0339 0.127,0.0889 0.0508,0.055 0.0741,0.12488 0.0254,0.0699 0.0339,0.14182 0.008,-0.0698 0.0339,-0.13758 0.0275,-0.0699 0.0783,-0.12277 0.0529,-0.055 0.13546,-0.0889 0.0825,-0.0339 0.20321,-0.0339 0.0572,0 0.11641,0.0127 0.0614,0.0106 0.11219,0.0508 0.0508,0.0402 0.0847,0.11642 0.036,0.0741 0.0423,0.20108 0.002,0.0402 0.002,0.072 0.002,0.0296 0.002,0.0593 0.002,0.0296 0.002,0.0614 0,0.0317 0,0.0741 0,0.0868 -0.002,0.14816 0,0.0593 0,0.10795 0,0.0402 -0.004,0.0741 -0.002,0.0339 -0.0127,0.0571 -0.0106,0.0233 -0.0317,0.0381 -0.0191,0.0127 -0.0572,0.0127 -0.036,0 -0.055,-0.0127 -0.019,-0.0148 -0.0317,-0.0487 z"
                 style="font-weight:bold;font-size:2.11667px;font-family:Sniglet;-inkscape-font-specification:'Sniglet Bold';fill:#000000;stroke-width:0.315912;stroke-linecap:round;stroke-linejoin:round"
                 id="path79173" />
              <path
                 d="m -110.59937,-571.77397 q 0.0444,0 0.11218,0.008 0.0677,0.006 0.12912,0.0275 0.0614,0.019 0.10583,0.055 0.0444,0.036 0.0444,0.091 0,0.0317 -0.019,0.055 -0.0169,0.0233 -0.055,0.0233 -0.0275,0 -0.0635,-0.008 -0.0339,-0.008 -0.0762,-0.019 -0.0402,-0.0127 -0.0889,-0.0212 -0.0466,-0.008 -0.0995,-0.008 -0.0889,0 -0.14605,0.0275 -0.055,0.0275 -0.055,0.0868 0,0.0339 0.0191,0.0571 0.0212,0.0233 0.055,0.0423 0.036,0.0169 0.0825,0.0296 0.0487,0.0127 0.1016,0.0254 0.0656,0.0169 0.12911,0.0381 0.0656,0.0212 0.11642,0.0593 0.0508,0.036 0.0825,0.0931 0.0318,0.055 0.0318,0.13758 0,0.15664 -0.11853,0.24977 -0.11854,0.091 -0.34925,0.091 -0.0508,0 -0.12065,-0.008 -0.0698,-0.006 -0.13124,-0.0275 -0.0614,-0.019 -0.10583,-0.055 -0.0423,-0.0381 -0.0423,-0.0995 0,-0.0423 0.0191,-0.0635 0.0212,-0.0233 0.0508,-0.0233 0.0233,0 0.0487,0.0148 0.0254,0.0148 0.0614,0.0317 0.036,0.0169 0.0868,0.0317 0.0508,0.0148 0.12488,0.0148 0.0275,0 0.072,-0.002 0.0444,-0.004 0.0868,-0.019 0.0444,-0.0148 0.0741,-0.0402 0.0318,-0.0275 0.0318,-0.0762 0,-0.0381 -0.0212,-0.0635 -0.0212,-0.0275 -0.0572,-0.0466 -0.036,-0.019 -0.0847,-0.0317 -0.0466,-0.0148 -0.0995,-0.0296 -0.0614,-0.0169 -0.12489,-0.0381 -0.0614,-0.0212 -0.11218,-0.055 -0.0508,-0.0339 -0.0826,-0.0847 -0.0317,-0.0529 -0.0317,-0.12912 0,-0.072 0.0296,-0.13335 0.0296,-0.0635 0.0847,-0.11006 0.055,-0.0466 0.13123,-0.072 0.0783,-0.0254 0.17357,-0.0254 z"
                 style="font-weight:bold;font-size:2.11667px;font-family:Sniglet;-inkscape-font-specification:'Sniglet Bold';fill:#000000;stroke-width:0.315912;stroke-linecap:round;stroke-linejoin:round"
                 id="path79175" />
              <path
                 d="m -108.99705,-570.62673 q -0.14605,0.004 -0.35984,0.006 -0.21166,0.004 -0.4826,0.004 -0.14393,0 -0.20532,-0.0169 -0.0614,-0.0169 -0.0614,-0.0868 0,-0.019 0.004,-0.0339 0.004,-0.0169 0.0191,-0.0296 0.0148,-0.0148 0.0402,-0.0233 0.0275,-0.008 0.0698,-0.0127 0.0445,-0.002 0.091,-0.004 0.0487,-0.002 0.10795,-0.002 0.0614,-0.002 0.1397,-0.002 0.0783,0 0.18415,0 0.1143,0 0.22648,0.002 0.11219,0 0.22437,0.006 0.0508,0.002 0.0783,0.0106 0.0275,0.008 0.0423,0.0212 0.0148,0.0127 0.0169,0.0296 0.004,0.0169 0.004,0.0381 0,0.0381 -0.0275,0.0635 -0.0254,0.0254 -0.11218,0.0296 z"
                 style="font-weight:bold;font-size:2.11667px;font-family:Sniglet;-inkscape-font-specification:'Sniglet Bold';fill:#000000;stroke-width:0.315912;stroke-linecap:round;stroke-linejoin:round"
                 id="path79177" />
              <path
                 d="m -108.47636,-570.36427 q 0,0.0402 -0.002,0.0762 -0.002,0.0381 -0.0148,0.0677 -0.0106,0.0296 -0.0339,0.0466 -0.0212,0.019 -0.0614,0.019 -0.0466,0 -0.0783,-0.0339 -0.0296,-0.0317 -0.0339,-0.1143 -0.002,-0.0529 -0.006,-0.12912 -0.004,-0.0762 -0.008,-0.16087 -0.002,-0.0847 -0.006,-0.16933 -0.002,-0.0847 -0.002,-0.15663 0,-0.24765 0.0339,-0.40852 0.036,-0.16087 0.10583,-0.25612 0.0699,-0.0952 0.17145,-0.13335 0.10372,-0.0381 0.23919,-0.0381 0.10795,0 0.2032,0.0339 0.0953,0.0317 0.1651,0.1016 0.072,0.0677 0.1143,0.1778 0.0423,0.10795 0.0423,0.26035 0,0.127 -0.0444,0.22437 -0.0423,0.0974 -0.11853,0.1651 -0.0762,0.0656 -0.17992,0.1016 -0.1016,0.0339 -0.21802,0.0339 -0.0995,0 -0.17991,-0.0402 -0.0783,-0.0423 -0.11219,-0.091 0.0106,0.11853 0.0169,0.22013 0.008,0.1016 0.008,0.2032 z m 0.2921,-1.17898 q -0.0741,0 -0.12911,0.0254 -0.0529,0.0254 -0.0868,0.0698 -0.0339,0.0444 -0.0508,0.10583 -0.0148,0.0614 -0.0148,0.13335 0,0.0698 0.0127,0.13335 0.0148,0.0614 0.0466,0.10795 0.0318,0.0466 0.0847,0.0741 0.0529,0.0275 0.12912,0.0275 0.0593,0 0.1143,-0.0148 0.055,-0.0169 0.0974,-0.055 0.0444,-0.0381 0.0699,-0.1016 0.0275,-0.0635 0.0275,-0.15875 0,-0.0974 -0.0275,-0.16298 -0.0254,-0.0677 -0.0699,-0.10795 -0.0423,-0.0423 -0.0974,-0.0593 -0.0529,-0.0169 -0.10584,-0.0169 z"
                 style="font-weight:bold;font-size:2.11667px;font-family:Sniglet;-inkscape-font-specification:'Sniglet Bold';fill:#000000;stroke-width:0.315912;stroke-linecap:round;stroke-linejoin:round"
                 id="path79179" />
              <path
                 d="m -106.95024,-571.74222 q 0.12065,0 0.2159,0.0381 0.0953,0.036 0.16086,0.10372 0.0677,0.0677 0.10372,0.1651 0.036,0.0974 0.036,0.21802 0,0.13335 -0.0423,0.23918 -0.0402,0.10583 -0.1143,0.17992 -0.072,0.0741 -0.17357,0.1143 -0.0995,0.0402 -0.21801,0.0402 -0.12912,0 -0.2286,-0.0444 -0.0974,-0.0444 -0.1651,-0.12065 -0.0656,-0.0762 -0.0995,-0.17568 -0.0339,-0.0995 -0.0339,-0.20955 0,-0.12065 0.0381,-0.22014 0.0402,-0.1016 0.11218,-0.17356 0.0741,-0.0741 0.1778,-0.1143 0.10372,-0.0402 0.23072,-0.0402 z m -0.0233,0.90382 q 0.0868,0 0.14817,-0.0296 0.0614,-0.0317 0.0995,-0.0825 0.0402,-0.0508 0.0572,-0.1143 0.019,-0.0656 0.019,-0.13547 0,-0.072 -0.019,-0.13335 -0.0169,-0.0635 -0.055,-0.11007 -0.036,-0.0466 -0.0953,-0.072 -0.0571,-0.0275 -0.13758,-0.0275 -0.0825,0 -0.14394,0.0275 -0.0614,0.0275 -0.10371,0.0762 -0.0402,0.0466 -0.0614,0.11219 -0.0212,0.0656 -0.0212,0.14182 0,0.15451 0.0783,0.25188 0.0804,0.0952 0.23495,0.0952 z"
                 style="font-weight:bold;font-size:2.11667px;font-family:Sniglet;-inkscape-font-specification:'Sniglet Bold';fill:#000000;stroke-width:0.315912;stroke-linecap:round;stroke-linejoin:round"
                 id="path79181" />
              <path
                 d="m -106.08453,-570.80665 q -0.006,-0.13335 -0.008,-0.31538 0,-0.18416 0,-0.41699 -0.0212,0.002 -0.0508,0.002 -0.0275,0 -0.0444,0 -0.0381,0 -0.0699,-0.002 -0.0296,-0.002 -0.0529,-0.0127 -0.0233,-0.0106 -0.036,-0.0296 -0.0127,-0.0212 -0.0127,-0.0571 0,-0.1016 0.1524,-0.1016 0.0233,0 0.0572,0 0.0339,0 0.0571,0.004 0,-0.11218 0.004,-0.17992 0.004,-0.0677 0.0148,-0.10371 0.0127,-0.0381 0.0317,-0.0487 0.0212,-0.0127 0.0529,-0.0127 0.0339,0 0.055,0.0233 0.0212,0.0233 0.0318,0.0593 0.0127,0.036 0.0148,0.0804 0.004,0.0444 0.004,0.0868 0,0.0296 -0.002,0.055 0,0.0233 0,0.0423 0.0296,-0.008 0.0614,-0.008 0.0318,-0.002 0.0614,-0.002 0.0783,0 0.12065,0.0254 0.0423,0.0233 0.0423,0.0783 0,0.0339 -0.0148,0.055 -0.0148,0.019 -0.0402,0.0296 -0.0233,0.0106 -0.0572,0.0148 -0.0318,0.002 -0.0699,0.002 -0.0212,0 -0.0487,0 -0.0275,0 -0.0508,-0.004 0,0.11218 0,0.20531 0,0.0931 -0.002,0.17992 -0.002,0.0847 -0.004,0.16934 -0.002,0.0847 -0.006,0.17991 -0.002,0.0508 -0.0106,0.0783 -0.006,0.0275 -0.019,0.0423 -0.0127,0.0148 -0.0296,0.019 -0.0148,0.002 -0.036,0.002 -0.0381,0 -0.0656,-0.0254 -0.0254,-0.0275 -0.0296,-0.1143 z"
                 style="font-weight:bold;font-size:2.11667px;font-family:Sniglet;-inkscape-font-specification:'Sniglet Bold';fill:#000000;stroke-width:0.315912;stroke-linecap:round;stroke-linejoin:round"
                 id="path79183" />
              <path
                 d="m -104.55841,-570.6606 q -0.0339,0 -0.055,-0.0106 -0.0191,-0.0127 -0.0296,-0.0317 -0.0106,-0.019 -0.0148,-0.0444 -0.004,-0.0275 -0.006,-0.0571 -0.0529,0.0656 -0.13759,0.11006 -0.0825,0.0444 -0.21166,0.0444 -0.0825,0 -0.16934,-0.0233 -0.0847,-0.0254 -0.15451,-0.0847 -0.0699,-0.0614 -0.1143,-0.16298 -0.0444,-0.1016 -0.0444,-0.25612 0,-0.12065 0.0296,-0.22648 0.0296,-0.10584 0.0889,-0.18415 0.0614,-0.0804 0.1524,-0.127 0.091,-0.0466 0.21378,-0.0466 0.10795,0 0.19262,0.0402 0.0847,0.0381 0.1524,0.127 0,-0.0254 0.002,-0.0508 0.002,-0.0275 0.0106,-0.0487 0.0106,-0.0233 0.0318,-0.036 0.0212,-0.0148 0.0571,-0.0148 0.0318,0 0.0593,0.0254 0.0275,0.0254 0.0317,0.11007 0.006,0.11218 0.008,0.20108 0.004,0.0889 0.004,0.18416 0,0.11641 -0.002,0.21378 -0.002,0.0974 -0.0106,0.20743 -0.004,0.0487 -0.0127,0.0783 -0.006,0.0275 -0.0169,0.0423 -0.0106,0.0127 -0.0254,0.0169 -0.0148,0.004 -0.0296,0.004 z m -0.1143,-0.53763 q 0,-0.11007 -0.0339,-0.17992 -0.0318,-0.0698 -0.0825,-0.10795 -0.0487,-0.0402 -0.10583,-0.055 -0.0572,-0.0148 -0.10583,-0.0148 -0.0762,0 -0.13124,0.0275 -0.0529,0.0275 -0.0868,0.0762 -0.0339,0.0466 -0.0508,0.11219 -0.0148,0.0635 -0.0148,0.1397 0,0.18627 0.0804,0.27517 0.0825,0.0889 0.22225,0.0889 0.0825,0 0.1397,-0.0275 0.0593,-0.0296 0.0952,-0.0783 0.0381,-0.0487 0.055,-0.1143 0.0191,-0.0677 0.0191,-0.14181 z"
                 style="font-weight:bold;font-size:2.11667px;font-family:Sniglet;-inkscape-font-specification:'Sniglet Bold';fill:#000000;stroke-width:0.315912;stroke-linecap:round;stroke-linejoin:round"
                 id="path79185" />
              <path
                 d="m -104.03136,-570.80665 q -0.006,-0.13335 -0.008,-0.31538 0,-0.18416 0,-0.41699 -0.0212,0.002 -0.0508,0.002 -0.0275,0 -0.0444,0 -0.0381,0 -0.0699,-0.002 -0.0296,-0.002 -0.0529,-0.0127 -0.0233,-0.0106 -0.036,-0.0296 -0.0127,-0.0212 -0.0127,-0.0571 0,-0.1016 0.1524,-0.1016 0.0233,0 0.0571,0 0.0339,0 0.0572,0.004 0,-0.11218 0.004,-0.17992 0.004,-0.0677 0.0148,-0.10371 0.0127,-0.0381 0.0318,-0.0487 0.0212,-0.0127 0.0529,-0.0127 0.0339,0 0.055,0.0233 0.0212,0.0233 0.0318,0.0593 0.0127,0.036 0.0148,0.0804 0.004,0.0444 0.004,0.0868 0,0.0296 -0.002,0.055 0,0.0233 0,0.0423 0.0296,-0.008 0.0614,-0.008 0.0318,-0.002 0.0614,-0.002 0.0783,0 0.12065,0.0254 0.0423,0.0233 0.0423,0.0783 0,0.0339 -0.0148,0.055 -0.0148,0.019 -0.0402,0.0296 -0.0233,0.0106 -0.0571,0.0148 -0.0318,0.002 -0.0699,0.002 -0.0212,0 -0.0487,0 -0.0275,0 -0.0508,-0.004 0,0.11218 0,0.20531 0,0.0931 -0.002,0.17992 -0.002,0.0847 -0.004,0.16934 -0.002,0.0847 -0.006,0.17991 -0.002,0.0508 -0.0106,0.0783 -0.006,0.0275 -0.0191,0.0423 -0.0127,0.0148 -0.0296,0.019 -0.0148,0.002 -0.036,0.002 -0.0381,0 -0.0656,-0.0254 -0.0254,-0.0275 -0.0296,-0.1143 z"
                 style="font-weight:bold;font-size:2.11667px;font-family:Sniglet;-inkscape-font-specification:'Sniglet Bold';fill:#000000;stroke-width:0.315912;stroke-linecap:round;stroke-linejoin:round"
                 id="path79187" />
              <path
                 d="m -102.90529,-571.74222 q 0.12065,0 0.2159,0.0381 0.0953,0.036 0.16087,0.10372 0.0677,0.0677 0.10371,0.1651 0.036,0.0974 0.036,0.21802 0,0.13335 -0.0423,0.23918 -0.0402,0.10583 -0.1143,0.17992 -0.072,0.0741 -0.17356,0.1143 -0.0995,0.0402 -0.21802,0.0402 -0.12912,0 -0.2286,-0.0444 -0.0974,-0.0444 -0.1651,-0.12065 -0.0656,-0.0762 -0.0995,-0.17568 -0.0339,-0.0995 -0.0339,-0.20955 0,-0.12065 0.0381,-0.22014 0.0402,-0.1016 0.11218,-0.17356 0.0741,-0.0741 0.1778,-0.1143 0.10372,-0.0402 0.23072,-0.0402 z m -0.0233,0.90382 q 0.0868,0 0.14817,-0.0296 0.0614,-0.0317 0.0995,-0.0825 0.0402,-0.0508 0.0572,-0.1143 0.019,-0.0656 0.019,-0.13547 0,-0.072 -0.019,-0.13335 -0.0169,-0.0635 -0.055,-0.11007 -0.036,-0.0466 -0.0953,-0.072 -0.0571,-0.0275 -0.13758,-0.0275 -0.0825,0 -0.14394,0.0275 -0.0614,0.0275 -0.10371,0.0762 -0.0402,0.0466 -0.0614,0.11219 -0.0212,0.0656 -0.0212,0.14182 0,0.15451 0.0783,0.25188 0.0804,0.0952 0.23495,0.0952 z"
                 style="font-weight:bold;font-size:2.11667px;font-family:Sniglet;-inkscape-font-specification:'Sniglet Bold';fill:#000000;stroke-width:0.315912;stroke-linecap:round;stroke-linejoin:round"
                 id="path79189" />
              <path
                 style="font-size:3.88056px;line-height:0.9;font-family:Sniglet;-inkscape-font-specification:Sniglet;text-align:center;text-anchor:middle;stroke-width:1.58864"
                 d="m -128.51239,-544.72535 q -0.0712,-0.0411 -0.10286,-0.0889 -0.0246,-0.0497 -0.0237,-0.10259 8.6e-4,-0.0529 0.0228,-0.11151 0.0242,-0.0631 0.056,-0.12772 -0.19085,0.0738 -0.42275,0.0643 -0.22747,-0.007 -0.49886,-0.16343 -0.17352,-0.10029 -0.32766,-0.25445 -0.14714,-0.15617 -0.22203,-0.36548 -0.0723,-0.21379 -0.0424,-0.48129 0.0299,-0.2675 0.21738,-0.59227 0.14641,-0.2536 0.3371,-0.44012 0.19069,-0.1865 0.41032,-0.27918 0.22664,-0.0945 0.47446,-0.0819 0.24783,0.0122 0.50589,0.16153 0.2269,0.13097 0.35607,0.31824 0.13178,0.18289 0.16621,0.45188 0.0308,-0.0534 0.0662,-0.10407 0.038,-0.0552 0.0812,-0.0893 0.0506,-0.0361 0.11043,-0.0372 0.0624,-0.005 0.13813,0.0381 0.0668,0.0385 0.0937,0.12543 0.0269,0.0869 -0.0669,0.26987 -0.12272,0.24354 -0.22624,0.43293 -0.0988,0.19214 -0.21431,0.39236 -0.14126,0.24469 -0.26402,0.44671 -0.12272,0.202 -0.27398,0.42316 -0.0681,0.097 -0.12177,0.14919 -0.0468,0.0501 -0.0869,0.0684 -0.0377,0.0139 -0.0741,0.005 -0.0365,-0.009 -0.0674,-0.0268 z m 0.41218,-1.26876 q 0.13353,-0.23136 0.14714,-0.41929 0.018,-0.18534 -0.0424,-0.32708 -0.0535,-0.14354 -0.15567,-0.2441 -0.10205,-0.10042 -0.20446,-0.15962 -0.16016,-0.0924 -0.30925,-0.10137 -0.14465,-0.007 -0.27489,0.0549 -0.12772,0.0568 -0.24288,0.17416 -0.10826,0.11543 -0.20072,0.27564 -0.22603,0.3915 -0.16485,0.67597 0.0657,0.28705 0.35926,0.45658 0.17352,0.10015 0.32707,0.11164 0.16051,0.009 0.29525,-0.0489 0.13908,-0.0559 0.25439,-0.17345 0.12218,-0.11934 0.2121,-0.27498 z m 0.50223,1.41109 q 0.0722,-0.16597 0.19609,-0.391 0.1238,-0.22509 0.30623,-0.54098 0.1798,-0.31143 0.29025,-0.50275 0.11502,-0.18865 0.22193,-0.3227 0.12759,-0.16956 0.20287,-0.19727 0.0799,-0.0251 0.15542,0.0185 0.0535,0.0308 0.0881,0.0631 0.0392,0.0349 0.0526,0.0837 0.0201,0.0473 0.007,0.11097 -0.0135,0.0637 -0.067,0.15706 -0.0108,0.0177 -0.016,0.0383 -0.0108,0.0177 -0.023,0.04 -0.005,0.0204 -0.0211,0.0472 0.20744,-0.0819 0.42036,-0.10137 0.21734,-0.0168 0.41311,0.0961 0.26249,0.15157 0.13663,0.36956 -0.0462,0.08 -0.11272,0.113 -0.062,0.0355 -0.14481,0.035 -0.0758,-0.003 -0.16619,-0.0307 -0.086,-0.0259 -0.18958,-0.062 -0.15781,-0.0554 -0.32607,-0.0518 -0.16566,-7e-4 -0.27437,0.0849 -0.0488,0.0845 -0.0719,0.12461 -0.0185,0.0426 -0.0339,0.0693 -0.0108,0.0293 -0.0288,0.0606 -0.018,0.0312 -0.0565,0.098 -0.1311,0.22689 -0.25576,0.42182 -0.12218,0.19045 -0.26437,0.41685 -0.0662,0.10407 -0.12178,0.14918 -0.0511,0.0476 -0.10042,0.0607 -0.0447,0.0157 -0.0827,-4e-4 -0.0408,-0.0122 -0.0765,-0.0319 -0.12461,-0.0719 -0.13822,-0.15104 -0.007,-0.081 0.081,-0.27361 z m 4.57407,2.82476 q 0.0169,-0.0911 0.062,-0.18959 0.0493,-0.0961 0.12894,-0.234 0.0565,-0.098 0.0874,-0.15128 0.038,-0.055 0.0611,-0.0953 0.0257,-0.0445 0.0489,-0.0845 0.0303,-0.0419 0.0739,-0.11745 0.0899,-0.15573 0.17063,-0.31673 0.0879,-0.16281 0.11989,-0.31042 0.0345,-0.15213 -0.004,-0.28104 -0.0382,-0.1288 -0.1985,-0.22129 -0.2714,-0.15669 -0.57165,0.0141 -0.30025,0.17072 -0.65761,0.71776 -0.11191,0.17267 -0.19667,0.31948 -0.0847,0.14683 -0.16419,0.24334 -0.0769,0.0922 -0.15919,0.12164 -0.078,0.0322 -0.18471,-0.0293 -0.098,-0.0565 -0.11407,-0.13123 -0.0136,-0.0792 0.0231,-0.19425 0.0414,-0.11259 0.12164,-0.26198 0.0847,-0.14682 0.18449,-0.35025 0.11002,-0.22124 0.19183,-0.43499 0.0864,-0.21119 0.10434,-0.39655 0.0251,-0.1872 -0.0349,-0.34041 -0.0554,-0.1506 -0.22448,-0.24823 -0.16015,-0.0924 -0.29535,-0.0638 -0.12813,0.0269 -0.24273,0.13272 -0.11191,0.10137 -0.21333,0.25647 -0.0945,0.15308 -0.18698,0.31324 -0.0462,0.0802 -0.0693,0.12002 -0.016,0.0383 -0.0339,0.0693 -0.018,0.0312 -0.0464,0.0802 -0.0237,0.0516 -0.0827,0.1539 -0.0847,0.14682 -0.15559,0.24831 -0.0662,0.10408 -0.1365,0.1644 -0.0826,0.071 -0.1487,0.0624 -0.0637,-0.0135 -0.10813,-0.0388 -0.13793,-0.0796 -0.12137,-0.20067 0.0165,-0.12097 0.11989,-0.31041 0.0591,-0.10231 0.12637,-0.22955 0.0746,-0.12907 0.17981,-0.31143 0.0514,-0.0889 0.0899,-0.15572 0.0385,-0.0668 0.0746,-0.12907 0.0405,-0.0596 0.0765,-0.12192 0.0431,-0.0641 0.0965,-0.14597 0.16999,-0.26372 0.34708,-0.37503 0.17954,-0.11583 0.34406,-0.13354 0.16446,-0.0177 0.31077,0.037 0.14889,0.0503 0.26011,0.11448 0.24026,0.1387 0.36376,0.30495 0.12354,0.16623 0.15906,0.34096 0.04,0.1773 0.004,0.3524 -0.0314,0.17766 -0.10083,0.33919 0.10259,-0.13656 0.23817,-0.24808 0.14266,-0.1134 0.31359,-0.163 0.17799,-0.0515 0.39261,-0.0226 0.21463,0.0289 0.46822,0.17538 0.12002,0.0693 0.22928,0.16799 0.11623,0.0968 0.17418,0.24288 0.058,0.14612 0.0366,0.34743 -0.0143,0.19942 -0.15506,0.47403 -0.0442,0.087 -0.0827,0.15392 -0.0314,0.0649 -0.0674,0.12718 -0.0314,0.0649 -0.0699,0.13178 -0.0385,0.0668 -0.0899,0.15573 -0.10529,0.1824 -0.1844,0.30877 -0.0719,0.12462 -0.1311,0.22692 -0.0487,0.0845 -0.0991,0.15042 -0.0457,0.0685 -0.0961,0.10475 -0.0505,0.0361 -0.11299,0.0415 -0.0554,0.004 -0.13555,-0.0426 -0.0757,-0.0436 -0.10029,-0.0935 -0.022,-0.0543 -0.008,-0.14079 z m 2.66663,1.74126 q -0.0712,-0.0412 -0.10285,-0.0891 -0.0246,-0.0497 -0.0237,-0.10259 8.6e-4,-0.0528 0.0228,-0.1115 0.0242,-0.0631 0.0559,-0.12773 -0.19083,0.0737 -0.42276,0.0643 -0.22747,-0.007 -0.49884,-0.16342 -0.17352,-0.10029 -0.32767,-0.25445 -0.14712,-0.15617 -0.22202,-0.36548 -0.0723,-0.21378 -0.0426,-0.48129 0.0299,-0.2675 0.21738,-0.59227 0.14641,-0.2536 0.33709,-0.44011 0.19069,-0.18652 0.41034,-0.27919 0.22662,-0.0945 0.47445,-0.0819 0.24785,0.0122 0.50588,0.16153 0.2269,0.1311 0.35608,0.31824 0.13177,0.1829 0.16621,0.45189 0.0308,-0.0535 0.0662,-0.10407 0.038,-0.0551 0.0812,-0.0893 0.0506,-0.0361 0.11043,-0.0372 0.0624,-0.005 0.13813,0.0381 0.0668,0.0385 0.0938,0.12542 0.027,0.0868 -0.0669,0.26989 -0.12286,0.24347 -0.22625,0.43291 -0.0988,0.19214 -0.2143,0.39236 -0.14128,0.24469 -0.26403,0.44672 -0.12272,0.20199 -0.27396,0.42315 -0.0681,0.0969 -0.12178,0.14919 -0.0468,0.0501 -0.0869,0.0684 -0.0376,0.0139 -0.0739,0.005 -0.0365,-0.009 -0.0674,-0.0268 z m 0.41218,-1.26876 q 0.13354,-0.23135 0.14715,-0.41929 0.018,-0.18533 -0.0424,-0.32707 -0.0537,-0.1436 -0.15567,-0.24411 -0.10205,-0.10042 -0.20446,-0.15961 -0.16016,-0.0924 -0.30925,-0.10136 -0.14465,-0.007 -0.2749,0.0547 -0.12773,0.0568 -0.24287,0.17417 -0.10826,0.11543 -0.20071,0.27564 -0.22604,0.3915 -0.16488,0.67598 0.0657,0.28704 0.35928,0.45657 0.1735,0.10029 0.32706,0.11164 0.16052,0.009 0.29525,-0.0489 0.13908,-0.0561 0.25438,-0.17346 0.12218,-0.11935 0.21209,-0.27498 z m 2.18368,2.73189 q -0.0889,-0.0514 -0.11016,-0.15853 -0.0166,-0.10461 0.015,-0.21087 -0.0816,0.0181 -0.18109,0.0259 -0.095,0.0108 -0.20967,0.004 -0.11205,-0.0122 -0.23429,-0.0464 -0.12218,-0.035 -0.24677,-0.10677 -0.15126,-0.0874 -0.30986,-0.24418 -0.15157,-0.15874 -0.24428,-0.37833 -0.0857,-0.22149 -0.0711,-0.50373 0.0191,-0.27961 0.20921,-0.60884 0.16183,-0.28029 0.37217,-0.44951 0.21036,-0.16922 0.44645,-0.22869 0.24305,-0.0614 0.49581,-0.0162 0.25976,0.0432 0.50893,0.18711 0.21353,0.12327 0.30985,0.24417 0.0962,0.12083 0.12894,0.22868 0.0693,-0.12002 0.15669,-0.27138 0.0899,-0.15572 0.17211,-0.29809 0.0893,-0.14417 0.1587,-0.26429 0.0741,-0.11745 0.11448,-0.17711 0.0965,-0.14599 0.1716,-0.17382 0.0778,-0.0322 0.18914,0.032 0.11569,0.0668 0.12232,0.14779 0.0136,0.0792 -0.057,0.22216 -0.0288,0.0606 -0.0853,0.15835 -0.0519,0.10056 -0.1188,0.21622 -0.0668,0.11569 -0.13613,0.23579 -0.0622,0.1184 -0.11881,0.2162 -0.0541,0.0935 -0.0899,0.15573 -0.0359,0.0622 -0.0359,0.0622 -0.262,0.45379 -0.49207,0.83113 -0.2255,0.37997 -0.35651,0.60688 -0.019,0.0542 -0.0184,0.11394 0.005,0.0625 0.0108,0.12489 0.009,0.065 0.008,0.12934 -10e-4,0.0643 -0.0323,0.11773 -0.0359,0.0622 -0.0954,0.0931 -0.0569,0.0265 -0.12381,0.0293 -0.0624,0.005 -0.1261,-0.008 -0.0566,-0.015 -0.0966,-0.0381 z m -0.63263,-0.88726 q 0.27585,0.15926 0.5177,0.0795 0.24187,-0.0799 0.4602,-0.45804 0.41871,-0.72518 -0.15524,-1.05654 -0.1334,-0.077 -0.28114,-0.10894 -0.14768,-0.0319 -0.29439,-0.004 -0.14222,0.0305 -0.279,0.12367 -0.13218,0.0957 -0.23502,0.27363 -0.0847,0.14681 -0.12178,0.30339 -0.0326,0.15915 -0.009,0.31475 0.0299,0.15363 0.12299,0.29048 0.0976,0.13931 0.27551,0.24205 z m 1.47191,1.01589 q 0.086,-0.16991 0.198,-0.38397 0.11881,-0.2162 0.26512,-0.4698 0.18238,-0.31588 0.3154,-0.53569 0.13559,-0.22425 0.23543,-0.35644 0.10691,-0.13394 0.19004,-0.17503 0.0857,-0.0455 0.16567,7.3e-4 0.0757,0.0437 0.10259,0.13057 0.0269,0.0869 -0.0669,0.26988 -0.24299,0.48257 -0.49472,0.91858 -0.1284,0.22246 -0.25063,0.41292 -0.11961,0.18601 -0.26179,0.4124 -0.0662,0.10407 -0.11731,0.15177 -0.0468,0.0501 -0.0914,0.066 -0.0447,0.0158 -0.0827,-4e-4 -0.0365,-0.009 -0.081,-0.0346 -0.0802,-0.0462 -0.10258,-0.13057 -0.02,-0.0887 0.0764,-0.27619 z m 1.83901,-2.7229 q 0.10232,0.0591 0.1406,0.188 0.0427,0.13151 -0.0215,0.24269 -0.0616,0.10664 -0.19685,0.13549 -0.13259,0.0243 -0.24389,-0.0399 -0.0935,-0.0541 -0.13421,-0.17841 -0.0338,-0.12624 0.033,-0.24196 0.0616,-0.10664 0.18536,-0.13623 0.13083,-0.0314 0.23757,0.0303 z m -0.84825,3.31864 q 0.0879,-0.16281 0.20659,-0.37901 0.1188,-0.2162 0.25796,-0.468 0.14385,-0.24914 0.29853,-0.52763 0.15926,-0.27584 0.32622,-0.56503 0.18238,-0.31588 0.31797,-0.54014 0.13558,-0.22427 0.238,-0.36087 0.10691,-0.13394 0.19002,-0.17504 0.0857,-0.0456 0.16569,7.3e-4 0.0757,0.0437 0.10529,0.1261 0.0296,0.0823 -0.0642,0.26541 -0.16719,0.3306 -0.36306,0.68021 -0.1932,0.34522 -0.38585,0.67889 -0.11556,0.20022 -0.22348,0.38706 -0.10528,0.18244 -0.21522,0.36219 -0.10732,0.17533 -0.2198,0.35952 -0.11258,0.18422 -0.23678,0.37939 -0.0662,0.10407 -0.11732,0.15177 -0.0466,0.05 -0.0914,0.066 -0.0447,0.0158 -0.0827,-4.1e-4 -0.0364,-0.009 -0.0811,-0.0346 -0.0802,-0.0462 -0.10258,-0.13056 -0.0201,-0.0885 0.0764,-0.27619 z m 0.99659,0.57538 q 0.0878,-0.1628 0.20659,-0.379 0.11881,-0.21621 0.25798,-0.468 0.14383,-0.24915 0.29852,-0.52764 0.15925,-0.27583 0.32621,-0.56503 0.18238,-0.31588 0.31797,-0.54013 0.13558,-0.22426 0.238,-0.36088 0.10691,-0.13394 0.19002,-0.17503 0.0857,-0.0455 0.16568,7.2e-4 0.0757,0.0437 0.10529,0.12597 0.0296,0.0823 -0.0643,0.26542 -0.16718,0.3306 -0.36306,0.6802 -0.1932,0.34522 -0.38584,0.67891 -0.11556,0.2002 -0.22348,0.38707 -0.10529,0.18241 -0.21523,0.36218 -0.10732,0.1753 -0.21978,0.35952 -0.11259,0.18421 -0.23678,0.37938 -0.0662,0.10407 -0.11732,0.15178 -0.0466,0.0502 -0.0914,0.066 -0.0447,0.0158 -0.0827,-4.1e-4 -0.0365,-0.009 -0.0808,-0.0346 -0.0802,-0.0462 -0.10259,-0.13056 -0.02,-0.0885 0.0764,-0.27618 z m 3.15096,-0.84428 q 0.2536,0.14642 0.40759,0.34203 0.15654,0.19125 0.21229,0.41322 0.0601,0.22457 0.0176,0.47288 -0.0424,0.24835 -0.1889,0.50194 -0.16182,0.2803 -0.37923,0.45139 -0.21294,0.17366 -0.45859,0.23946 -0.24116,0.0683 -0.50353,0.0296 -0.25787,-0.0362 -0.50702,-0.18008 -0.27141,-0.15668 -0.42655,-0.37086 -0.15072,-0.2116 -0.20063,-0.45394 -0.0454,-0.2398 0.004,-0.49 0.0495,-0.25019 0.1831,-0.48156 0.14642,-0.2536 0.34727,-0.41644 0.20781,-0.16477 0.44645,-0.22868 0.24561,-0.0658 0.51241,-0.0245 0.2668,0.0414 0.53374,0.19551 z m -1.14578,1.87148 q 0.18243,0.10543 0.34739,0.11759 0.16753,0.008 0.30928,-0.0529 0.14611,-0.058 0.25883,-0.1709 0.11961,-0.11475 0.2044,-0.26163 0.0875,-0.15127 0.12178,-0.30339 0.0416,-0.154 0.0178,-0.29813 -0.0192,-0.14161 -0.11299,-0.26687 -0.0868,-0.12719 -0.25578,-0.22485 -0.17351,-0.10029 -0.33596,-0.11678 -0.16245,-0.0165 -0.31047,0.0343 -0.14103,0.0491 -0.26517,0.16131 -0.12408,0.11232 -0.21658,0.27242 -0.18752,0.32477 -0.14106,0.62448 0.0535,0.29781 0.37825,0.48531 z m 3.47614,1.25358 q -0.10218,0.16641 -0.21778,0.36663 -0.11556,0.2002 -0.22905,0.36604 -0.0862,0.12813 -0.16245,0.13758 -0.0695,0.007 -0.15843,-0.0441 -0.0801,-0.0462 -0.10664,-0.10313 -0.0246,-0.0497 0.007,-0.15608 0.0388,-0.10813 0.13959,-0.2931 0.10326,-0.18954 0.2831,-0.50097 -0.14682,-0.0847 -0.28295,-0.15724 -0.13611,-0.0725 -0.26068,-0.14439 -0.18686,-0.10786 -0.33728,-0.20696 -0.14597,-0.0965 -0.2445,-0.18274 -0.0914,-0.0883 -0.12786,-0.16882 -0.032,-0.0779 0.009,-0.14902 0.0565,-0.098 0.22131,-0.1985 0.16748,-0.10501 0.38772,-0.20919 0.22029,-0.10421 0.45651,-0.20507 0.24324,-0.10272 0.44882,-0.19169 0.0945,-0.0404 0.26429,-0.1084 0.17686,-0.0699 0.36441,-0.12772 0.19017,-0.0622 0.35979,-0.0888 0.16963,-0.0266 0.24972,0.0196 0.0756,0.0436 0.10529,0.1261 0.0296,0.0823 -0.0643,0.26542 -0.13123,0.26832 -0.29113,0.55561 -0.15724,0.28296 -0.31648,0.5588 l -0.2543,0.44045 q 0.11934,0.081 0.18735,0.13784 0.068,0.0569 0.0926,0.10677 0.0272,0.0454 0.0201,0.0887 -0.007,0.0431 -0.0381,0.0966 -0.0642,0.11123 -0.1896,0.0923 -0.12272,-0.0235 -0.31487,-0.12245 z m 0.40396,-1.70656 q -0.3319,0.12272 -0.56742,0.21221 -0.22851,0.0874 -0.39574,0.15116 -0.1628,0.0662 -0.28278,0.10962 -0.11543,0.0459 -0.20747,0.0819 0.20996,0.10894 0.42351,0.23229 0.22064,0.12123 0.43422,0.24457 z m 0.0396,2.82874 q 0.0722,-0.16597 0.19611,-0.391 0.1238,-0.22509 0.30621,-0.54098 0.1798,-0.31143 0.29027,-0.50275 0.11502,-0.18865 0.22191,-0.3227 0.12759,-0.16956 0.20288,-0.19727 0.0799,-0.0251 0.15542,0.0185 0.0535,0.0308 0.0881,0.0631 0.0392,0.0349 0.0526,0.0837 0.0201,0.0473 0.007,0.11097 -0.0135,0.0637 -0.067,0.15706 -0.0108,0.0177 -0.0158,0.0383 -0.0108,0.0177 -0.0231,0.04 -0.005,0.0204 -0.0211,0.0472 0.20745,-0.0819 0.42037,-0.10137 0.21735,-0.0168 0.4131,0.0961 0.26251,0.15155 0.13663,0.36956 -0.0462,0.0802 -0.11272,0.113 -0.062,0.0354 -0.14479,0.035 -0.0757,-0.003 -0.16618,-0.0307 -0.086,-0.026 -0.18959,-0.062 -0.1578,-0.0554 -0.32605,-0.0518 -0.16568,-7.3e-4 -0.27439,0.0847 -0.0488,0.0845 -0.0719,0.12462 -0.0185,0.0426 -0.0339,0.0693 -0.0108,0.0293 -0.0288,0.0606 -0.018,0.0312 -0.0565,0.098 -0.13111,0.22691 -0.25576,0.42183 -0.12219,0.19046 -0.26437,0.41685 -0.0662,0.10407 -0.12178,0.14918 -0.0511,0.0476 -0.10042,0.0607 -0.0447,0.0158 -0.0827,-4.1e-4 -0.0409,-0.0122 -0.0765,-0.0319 -0.12462,-0.0719 -0.13821,-0.15103 -0.007,-0.081 0.0808,-0.27361 z"
                 id="text1"
                 aria-label="armadillo4r" />
            </g>
          </g>
        </g>
      </g>
    </g>
  </g>
  <style
     type="text/css"
     id="style10296">
	.st0{fill:#75AADB;}
	.st1{fill:#4D4D4D;}
	.st2{fill:#FFFFFF;}
	.st3{fill:url(#SVGID_1_);}
	.st4{fill:url(#SVGID_2_);}
	.st5{fill:url(#SVGID_3_);}
	.st6{fill:url(#SVGID_4_);}
	.st7{fill:url(#SVGID_5_);}
	.st8{fill:url(#SVGID_6_);}
	.st9{fill:url(#SVGID_7_);}
	.st10{fill:url(#SVGID_8_);}
	.st11{fill:url(#SVGID_9_);}
	.st12{fill:url(#SVGID_10_);}
	.st13{opacity:0.18;fill:url(#SVGID_11_);}
	.st14{opacity:0.3;}
</style>
  <style
     type="text/css"
     id="style10296-3">
	.st0{fill:#75AADB;}
	.st1{fill:#4D4D4D;}
	.st2{fill:#FFFFFF;}
	.st3{fill:url(#SVGID_1_);}
	.st4{fill:url(#SVGID_2_);}
	.st5{fill:url(#SVGID_3_);}
	.st6{fill:url(#SVGID_4_);}
	.st7{fill:url(#SVGID_5_);}
	.st8{fill:url(#SVGID_6_);}
	.st9{fill:url(#SVGID_7_);}
	.st10{fill:url(#SVGID_8_);}
	.st11{fill:url(#SVGID_9_);}
	.st12{fill:url(#SVGID_10_);}
	.st13{opacity:0.18;fill:url(#SVGID_11_);}
	.st14{opacity:0.3;}
</style>
  <style
     type="text/css"
     id="style10296-7">
	.st0{fill:#75AADB;}
	.st1{fill:#4D4D4D;}
	.st2{fill:#FFFFFF;}
	.st3{fill:url(#SVGID_1_);}
	.st4{fill:url(#SVGID_2_);}
	.st5{fill:url(#SVGID_3_);}
	.st6{fill:url(#SVGID_4_);}
	.st7{fill:url(#SVGID_5_);}
	.st8{fill:url(#SVGID_6_);}
	.st9{fill:url(#SVGID_7_);}
	.st10{fill:url(#SVGID_8_);}
	.st11{fill:url(#SVGID_9_);}
	.st12{fill:url(#SVGID_10_);}
	.st13{opacity:0.18;fill:url(#SVGID_11_);}
	.st14{opacity:0.3;}
</style>
  <style
     type="text/css"
     id="style10296-4">
	.st0{fill:#75AADB;}
	.st1{fill:#4D4D4D;}
	.st2{fill:#FFFFFF;}
	.st3{fill:url(#SVGID_1_);}
	.st4{fill:url(#SVGID_2_);}
	.st5{fill:url(#SVGID_3_);}
	.st6{fill:url(#SVGID_4_);}
	.st7{fill:url(#SVGID_5_);}
	.st8{fill:url(#SVGID_6_);}
	.st9{fill:url(#SVGID_7_);}
	.st10{fill:url(#SVGID_8_);}
	.st11{fill:url(#SVGID_9_);}
	.st12{fill:url(#SVGID_10_);}
	.st13{opacity:0.18;fill:url(#SVGID_11_);}
	.st14{opacity:0.3;}
</style>
  <style
     type="text/css"
     id="style10296-9">
	.st0{fill:#75AADB;}
	.st1{fill:#4D4D4D;}
	.st2{fill:#FFFFFF;}
	.st3{fill:url(#SVGID_1_);}
	.st4{fill:url(#SVGID_2_);}
	.st5{fill:url(#SVGID_3_);}
	.st6{fill:url(#SVGID_4_);}
	.st7{fill:url(#SVGID_5_);}
	.st8{fill:url(#SVGID_6_);}
	.st9{fill:url(#SVGID_7_);}
	.st10{fill:url(#SVGID_8_);}
	.st11{fill:url(#SVGID_9_);}
	.st12{fill:url(#SVGID_10_);}
	.st13{opacity:0.18;fill:url(#SVGID_11_);}
	.st14{opacity:0.3;}
</style>
  <style
     type="text/css"
     id="style10296-2">
	.st0{fill:#75AADB;}
	.st1{fill:#4D4D4D;}
	.st2{fill:#FFFFFF;}
	.st3{fill:url(#SVGID_1_);}
	.st4{fill:url(#SVGID_2_);}
	.st5{fill:url(#SVGID_3_);}
	.st6{fill:url(#SVGID_4_);}
	.st7{fill:url(#SVGID_5_);}
	.st8{fill:url(#SVGID_6_);}
	.st9{fill:url(#SVGID_7_);}
	.st10{fill:url(#SVGID_8_);}
	.st11{fill:url(#SVGID_9_);}
	.st12{fill:url(#SVGID_10_);}
	.st13{opacity:0.18;fill:url(#SVGID_11_);}
	.st14{opacity:0.3;}
</style>
</svg>
